<?xml version="1.0" standalone="no"?>
<!DOCTYPE svg PUBLIC "-//W3C//DTD SVG 20010904//EN"
 "http://www.w3.org/TR/2001/REC-SVG-20010904/DTD/svg10.dtd">
<svg version="1.0" xmlns="http://www.w3.org/2000/svg"
 width="1080.000000pt" height="1080.000000pt" viewBox="0 0 1080.000000 1080.000000"
 preserveAspectRatio="xMidYMid meet">

<g transform="translate(0.000000,1080.000000) scale(0.100000,-0.100000)"
fill="#000000" stroke="none">
<path d="M0 5400 l0 -5400 5400 0 5400 0 0 5400 0 5400 -5400 0 -5400 0 0
-5400z m7685 3731 c28 -10 77 -31 110 -46 33 -15 74 -33 90 -40 17 -7 60 -27
96 -44 36 -17 72 -31 79 -31 7 0 21 -6 29 -14 9 -7 43 -28 76 -45 95 -50 328
-292 310 -321 -3 -6 -2 -10 4 -10 11 0 80 -110 104 -165 9 -22 21 -60 28 -85
6 -25 18 -59 25 -77 8 -17 14 -35 14 -41 0 -5 7 -23 15 -38 8 -16 15 -37 15
-47 0 -10 9 -35 20 -57 18 -35 26 -70 16 -70 -12 0 -117 67 -181 115 -39 30
-312 299 -370 365 -17 19 -45 55 -61 80 -62 92 -85 125 -92 130 -4 3 -23 30
-43 61 -20 30 -56 77 -80 103 -24 26 -48 56 -54 66 -12 21 -35 46 -141 153
-43 42 -73 77 -68 77 5 0 32 -8 59 -19z m-4675 -7 c0 -3 -47 -52 -105 -109
-58 -57 -105 -108 -105 -113 0 -6 -9 -21 -20 -34 -11 -12 -36 -44 -57 -70 -21
-25 -65 -80 -98 -121 -33 -40 -85 -106 -115 -146 -30 -40 -62 -81 -70 -90 -8
-9 -28 -32 -43 -51 -137 -172 -311 -336 -450 -426 -55 -35 -60 -30 -32 26 37
72 85 210 85 242 0 15 6 42 14 60 8 18 26 64 41 101 16 38 33 74 40 81 7 6 16
22 19 34 4 12 11 22 16 22 5 0 18 17 29 38 11 20 35 53 55 71 20 19 36 39 36
44 0 8 130 135 190 187 40 34 92 69 130 86 19 9 71 33 115 54 44 21 113 47
153 58 40 12 89 29 110 40 38 20 62 26 62 16z m5595 -431 c22 -11 57 -35 79
-52 21 -17 42 -31 46 -31 6 0 167 -147 192 -175 44 -49 102 -142 124 -195 14
-36 30 -70 34 -75 15 -18 39 -99 46 -155 7 -64 11 -920 4 -920 -3 0 -21 26
-40 57 -19 31 -64 88 -98 127 -35 38 -71 80 -79 93 -8 13 -20 23 -26 23 -6 0
-34 22 -62 49 -27 28 -67 63 -87 78 -83 64 -317 254 -320 261 -2 4 -20 20 -41
35 -37 28 -117 127 -117 146 0 5 -8 16 -17 23 -40 29 -148 288 -167 401 -9 51
12 49 44 -6 56 -95 332 -342 417 -374 26 -10 213 -178 240 -215 12 -17 20 -35
17 -40 -9 -14 17 -38 41 -38 20 0 50 -29 87 -84 4 -6 10 -8 13 -4 6 6 -13 78
-60 228 -43 138 -44 142 -49 215 -4 73 -42 219 -70 270 -9 17 -16 33 -16 38 0
6 -36 71 -73 132 -35 57 -94 132 -142 179 -29 30 -51 56 -49 59 6 6 74 -21
129 -50z m-5484 -101 c16 -24 29 -46 29 -50 0 -4 17 -24 39 -44 21 -21 51 -57
67 -80 15 -24 35 -50 44 -60 8 -9 24 -28 35 -42 18 -24 117 -124 196 -198 17
-16 34 -28 40 -28 5 0 34 -18 63 -40 30 -21 67 -42 82 -46 16 -4 50 -18 75
-30 148 -75 492 -70 744 11 28 9 75 23 105 32 30 9 92 33 137 55 46 21 88 38
94 38 6 0 23 8 37 19 15 10 52 31 82 46 70 36 210 127 210 137 0 4 7 8 15 8 7
0 18 6 22 13 4 7 27 25 51 40 41 27 45 27 67 13 13 -9 37 -32 52 -51 15 -19
32 -35 37 -35 5 0 25 -15 46 -32 78 -69 103 -89 134 -106 17 -9 43 -29 58 -44
16 -14 41 -29 58 -33 17 -4 35 -15 40 -26 6 -10 17 -19 25 -19 8 0 36 -10 62
-21 27 -12 59 -27 73 -33 14 -5 31 -15 38 -20 8 -6 23 -11 35 -13 11 -2 26 -8
32 -13 7 -5 14 -7 17 -4 10 10 93 -20 111 -40 15 -17 17 -17 17 -2 0 16 8 17
83 10 45 -3 87 -11 94 -16 11 -9 67 -7 193 5 19 2 42 6 51 11 9 4 20 6 25 5
32 -9 223 46 248 71 5 5 17 10 26 10 16 0 101 37 110 49 11 13 67 48 98 61 19
7 49 27 69 44 60 52 237 229 248 247 13 22 86 117 119 154 14 17 32 45 38 63
7 17 15 32 19 32 4 0 11 9 14 21 5 15 14 19 37 17 32 -3 47 -31 63 -116 4 -20
11 -42 15 -47 5 -6 11 -28 14 -50 3 -22 12 -69 21 -105 8 -36 17 -92 19 -125
3 -33 5 -60 6 -60 0 0 3 -40 6 -90 2 -49 7 -98 10 -108 3 -11 7 -51 9 -90 1
-40 6 -103 9 -142 15 -166 20 -283 20 -485 -1 -376 -4 -469 -13 -487 -5 -10
-15 -108 -21 -218 -6 -110 -16 -220 -21 -245 -6 -25 -12 -70 -14 -100 -5 -94
-14 -153 -34 -220 -30 -97 -51 -185 -57 -227 -2 -21 -8 -41 -13 -46 -5 -5 -7
-16 -4 -23 3 -8 0 -14 -7 -14 -6 0 -9 -4 -6 -9 4 -5 -10 -50 -29 -101 -19 -50
-35 -100 -35 -110 0 -10 -4 -22 -10 -25 -6 -4 -10 6 -10 24 0 16 4 33 10 36 6
3 10 14 10 23 0 15 -2 15 -10 2 -5 -8 -10 -10 -11 -5 -1 6 -5 -8 -9 -30 -5
-24 -3 -46 3 -56 11 -18 -7 -79 -24 -79 -13 0 -31 39 -23 51 4 6 2 14 -4 18
-13 8 5 89 32 142 9 18 16 42 16 54 0 22 34 135 53 173 14 29 -2 46 -46 49
-33 2 -702 1 -772 -1 -38 -1 -40 -3 -39 -31 1 -16 10 -52 19 -78 14 -38 15
-53 7 -73 -19 -40 -57 -31 -150 36 -45 32 -92 62 -103 65 -14 5 -36 -5 -75
-35 l-54 -41 25 -43 c61 -104 120 -324 127 -471 l3 -70 -135 -3 c-74 -1 -144
0 -156 2 -19 5 -22 15 -27 96 -9 120 -32 226 -72 334 -19 50 -31 94 -29 98 3
5 32 22 65 38 42 22 59 36 59 50 0 11 -2 20 -5 20 -3 0 -37 -16 -75 -35 l-69
-35 -37 63 c-53 92 -139 203 -216 281 -37 37 -68 72 -68 76 0 8 103 90 114 90
12 0 139 -82 191 -123 28 -22 86 -78 131 -125 64 -67 82 -81 88 -67 3 9 6 22
6 29 0 15 -95 114 -180 189 -39 35 -58 57 -48 57 9 0 19 4 22 9 7 10 -15 91
-38 143 l-16 37 76 56 c90 67 134 105 134 117 0 4 -44 8 -97 8 -54 0 -115 3
-135 6 -34 6 -37 10 -44 48 -3 22 -15 69 -26 104 -14 48 -23 62 -36 60 -17 -3
-27 -28 -62 -147 l-21 -74 -130 6 c-107 5 -129 3 -129 -9 0 -7 35 -41 78 -74
115 -91 124 -99 120 -112 -7 -21 -38 -21 -46 0 -14 38 -203 184 -210 163 -2
-5 6 -28 17 -50 28 -54 27 -71 -4 -71 -18 0 -25 5 -25 19 0 10 -14 51 -30 92
-17 41 -29 83 -26 94 3 12 50 54 105 95 60 45 99 81 98 90 -2 13 -23 14 -133
12 l-130 -4 -34 109 c-46 143 -56 144 -105 11 -47 -127 -50 -132 -89 -123
-120 25 -195 24 -203 -2 -2 -6 39 -46 91 -89 66 -54 96 -85 95 -99 0 -11 -17
-63 -38 -115 l-39 -94 -88 -27 c-49 -14 -102 -31 -117 -37 -42 -18 -43 -17
-37 43 l5 55 94 60 c55 36 90 65 85 70 -5 5 -62 12 -127 16 l-118 7 -15 36
c-9 20 -25 72 -36 116 -22 83 -34 108 -48 100 -8 -5 -60 -164 -74 -227 l-6
-28 -126 0 c-95 0 -125 -3 -122 -12 3 -7 46 -41 96 -76 57 -39 92 -70 92 -81
0 -10 -13 -58 -29 -106 -43 -127 -31 -134 81 -50 40 30 79 55 86 55 8 0 25 -9
38 -19 l24 -19 -68 -40 c-137 -82 -342 -269 -342 -313 0 -40 25 -26 108 58 48
49 103 102 122 117 59 47 183 127 193 123 16 -5 106 -82 107 -91 0 -4 -38 -48
-84 -97 -73 -76 -140 -166 -212 -286 l-20 -33 -63 30 c-73 35 -77 35 -85 14
-4 -11 11 -23 59 -46 36 -16 65 -34 65 -40 0 -6 -16 -54 -36 -106 -35 -94 -64
-213 -81 -337 l-8 -60 -85 -3 c-47 -2 -114 0 -149 3 l-63 7 7 66 c15 148 60
312 116 424 16 32 29 64 29 72 0 17 -114 116 -134 116 -7 0 -33 -17 -57 -38
-72 -63 -167 -124 -179 -117 -13 8 -7 73 15 155 10 40 11 51 0 60 -8 7 -78 9
-206 5 -107 -3 -304 -7 -439 -10 -135 -3 -248 -9 -252 -13 -7 -7 27 -116 81
-267 38 -102 109 -263 192 -430 43 -88 79 -164 79 -169 0 -5 7 -18 17 -28 9
-10 21 -27 27 -37 73 -130 199 -315 269 -394 55 -63 135 -144 270 -270 33 -31
38 -40 26 -48 -11 -8 -10 -9 6 -5 25 7 58 -10 35 -18 -28 -8 -99 -14 -102 -7
-2 3 -19 19 -38 35 -59 48 -163 140 -178 157 -8 10 -29 34 -48 54 -19 20 -34
40 -34 44 0 3 -17 25 -37 47 -37 39 -116 150 -158 218 -11 18 -29 45 -40 59
-39 53 -245 445 -245 467 0 6 -13 34 -29 63 -16 28 -36 74 -45 100 -9 27 -23
61 -31 77 -8 16 -38 95 -65 177 -176 512 -215 990 -145 1773 17 187 25 251 33
265 4 6 8 39 10 75 8 170 91 701 113 725 5 5 9 23 9 40 0 16 11 54 25 83 l25
53 31 -23 c17 -13 44 -42 60 -66z m-1018 62 c3 -4 -13 -30 -36 -60 -50 -64
-112 -159 -125 -194 -6 -14 -23 -54 -39 -90 -45 -98 -65 -165 -67 -220 -1 -8
-4 -20 -8 -26 -4 -6 -14 -49 -22 -96 -30 -169 -55 -274 -80 -331 -43 -96 -32
-115 24 -41 47 62 285 304 335 340 22 16 49 37 60 47 11 10 36 28 55 40 43 25
290 273 290 290 0 6 11 26 24 42 18 22 27 27 36 19 17 -17 -13 -151 -56 -249
-94 -213 -204 -358 -399 -523 -260 -221 -375 -332 -460 -446 -116 -155 -116
-155 -108 32 4 98 1 172 -11 260 -23 179 -22 427 4 545 21 95 89 244 151 330
85 117 234 241 384 320 34 18 39 19 48 11z m7098 -515 c19 -37 -6 -45 -30 -10
-22 31 -22 31 -2 31 11 0 25 -9 32 -21z m-7746 -72 c-13 -24 -32 -71 -41 -106
-30 -118 -62 -470 -45 -496 3 -5 11 -62 18 -125 6 -63 19 -187 28 -275 16
-162 14 -218 -15 -395 -12 -76 -12 -203 0 -195 5 3 12 22 16 43 18 106 68 242
122 335 60 106 100 149 390 432 78 76 142 141 142 144 0 4 18 28 40 55 23 27
45 56 50 65 32 57 10 -76 -41 -248 -39 -131 -130 -316 -223 -451 -40 -58 -95
-136 -121 -175 -27 -38 -63 -92 -81 -120 -18 -27 -42 -61 -52 -75 -11 -14 -38
-61 -62 -105 -23 -44 -46 -84 -50 -90 -38 -48 -130 -278 -129 -322 0 -4 -4 -9
-9 -11 -6 -2 -13 30 -17 70 -4 40 -11 80 -15 88 -5 9 -15 47 -24 85 -18 82
-64 218 -104 307 -15 35 -34 83 -41 108 -7 25 -19 65 -28 90 -47 132 -67 301
-65 537 1 108 36 309 64 373 9 19 21 54 28 78 8 23 35 79 62 124 26 45 48 85
48 90 0 4 3 8 8 8 4 0 20 23 37 50 16 28 32 50 35 50 4 0 24 25 44 55 44 63
68 64 31 2z m7827 -31 c15 -17 28 -35 28 -39 0 -5 13 -25 29 -45 17 -20 42
-66 57 -102 16 -36 38 -81 49 -100 12 -19 25 -48 28 -65 11 -63 48 -201 58
-218 25 -45 38 -179 35 -359 -4 -204 -7 -229 -42 -343 -13 -44 -36 -118 -50
-165 -14 -47 -31 -94 -37 -105 -6 -11 -23 -57 -37 -103 -15 -46 -30 -83 -34
-82 -22 1 -26 -2 -21 -23 4 -12 1 -36 -6 -52 -6 -17 -14 -46 -16 -65 -2 -19
-8 -51 -13 -70 -6 -19 -10 -52 -10 -72 0 -40 -19 -54 -21 -15 -2 61 -42 195
-76 257 -10 19 -25 54 -31 78 -7 23 -17 42 -22 42 -5 0 -16 16 -25 36 -8 19
-34 61 -57 92 -24 31 -56 77 -73 101 -16 24 -49 66 -72 92 -24 26 -43 52 -43
59 0 6 -13 23 -30 37 -16 13 -30 31 -30 38 0 7 -4 15 -8 17 -20 8 -156 205
-184 266 -17 37 -33 69 -37 72 -4 3 -14 23 -22 45 -9 22 -26 65 -38 95 -49
122 -81 263 -62 274 4 3 16 -12 26 -34 10 -22 21 -40 25 -40 6 0 46 -48 132
-158 15 -20 46 -45 67 -58 22 -12 59 -37 82 -56 56 -44 199 -187 199 -199 0
-5 4 -9 8 -9 15 0 107 -143 161 -249 38 -75 54 -120 58 -160 3 -31 10 -61 15
-68 5 -7 7 -22 3 -33 -6 -18 -3 -21 12 -18 22 4 22 21 -1 163 -9 54 -16 140
-15 190 1 51 -1 97 -5 104 -4 6 -3 17 2 24 5 7 12 63 15 125 4 62 9 117 12
122 12 19 33 477 23 488 -3 4 -9 34 -11 67 -5 67 -27 144 -74 263 -9 23 49 -8
79 -42z m418 -1108 c50 -136 60 -168 64 -224 3 -27 7 -57 11 -66 5 -12 2 -15
-12 -12 -18 5 -43 -32 -43 -63 0 -21 39 3 49 30 9 24 25 -132 21 -214 -5 -146
-9 -182 -22 -190 -7 -5 -14 -4 -16 1 -6 18 -22 10 -22 -10 0 -14 6 -20 18 -18
14 3 17 -4 14 -42 -2 -24 -8 -47 -14 -51 -6 -4 -8 -20 -4 -42 4 -22 1 -50 -8
-74 -8 -21 -31 -92 -51 -158 -47 -149 -53 -158 -75 -108 -13 30 -18 34 -23 20
-8 -20 2 -75 14 -83 5 -3 9 0 9 7 0 7 3 10 6 6 14 -14 -147 -278 -207 -338 -9
-9 -21 -23 -25 -31 -5 -7 -22 -21 -37 -31 -15 -10 -32 -30 -38 -45 -6 -14 -28
-44 -50 -66 -21 -22 -39 -45 -39 -51 0 -6 -11 -22 -24 -34 -14 -13 -46 -59
-72 -102 -27 -43 -52 -79 -57 -79 -5 0 -7 26 -4 58 17 180 0 415 -33 482 -9
19 -21 53 -24 75 -7 39 -69 241 -86 280 -21 48 -49 158 -43 168 4 6 1 7 -7 2
-10 -6 -12 -4 -7 7 3 9 2 19 -3 24 -13 15 -37 102 -65 239 -15 72 -29 137 -33
145 -23 59 -35 440 -14 440 5 0 16 -24 25 -53 22 -68 118 -256 202 -394 70
-113 83 -149 67 -179 -5 -11 -7 -25 -4 -33 3 -11 9 -8 22 9 15 21 18 21 33 5
23 -22 32 -64 19 -85 -9 -14 -6 -22 14 -41 17 -16 24 -18 24 -8 1 10 3 9 11
-3 7 -12 6 -24 -1 -38 -6 -12 -7 -20 -1 -20 5 0 11 6 13 12 7 21 30 -30 32
-71 1 -20 9 -50 19 -68 9 -18 17 -52 17 -77 0 -25 5 -56 11 -70 9 -20 7 -48
-10 -136 -13 -60 -24 -120 -26 -133 -1 -12 -6 -41 -10 -64 -6 -36 -5 -43 9
-43 8 0 18 10 21 23 27 117 37 168 41 202 7 71 15 109 29 140 8 17 21 59 30
95 30 123 35 138 59 186 44 88 146 322 146 334 0 6 11 35 24 63 14 29 29 70
35 92 38 155 61 262 61 289 0 18 4 36 8 42 4 5 5 52 2 104 -3 52 -4 98 -2 103
6 13 19 -1 32 -35z m-8692 -60 c-6 -69 9 -300 23 -360 6 -25 12 -57 13 -70 2
-12 11 -41 21 -63 9 -22 31 -71 48 -110 16 -38 50 -112 74 -163 23 -50 43 -96
43 -101 0 -5 12 -35 26 -67 47 -107 57 -136 102 -294 2 -8 5 -26 6 -40 1 -14
5 -30 9 -37 4 -7 17 -65 28 -129 12 -64 28 -133 36 -153 13 -30 16 -33 25 -17
9 16 3 72 -23 209 -23 121 3 287 65 422 8 17 26 59 39 95 14 36 37 85 51 110
14 25 30 56 36 70 5 14 16 36 24 50 8 14 35 66 61 115 26 50 53 97 60 105 19
24 92 169 117 235 l22 60 6 -35 c8 -54 3 -164 -14 -275 -42 -279 -71 -435
-101 -540 -9 -33 -27 -103 -40 -155 -12 -52 -27 -106 -33 -120 -20 -49 -54
-178 -86 -335 -18 -84 -27 -230 -23 -347 3 -76 2 -138 -3 -138 -4 0 -20 19
-36 43 -16 23 -32 44 -35 47 -3 3 -12 16 -19 29 -7 14 -17 30 -22 35 -4 6 -18
22 -29 36 -12 14 -29 41 -40 61 -10 20 -31 50 -46 67 -36 38 -47 53 -78 98
-14 20 -41 55 -60 78 -47 55 -46 55 -83 108 -18 26 -32 49 -32 53 0 4 -7 13
-15 21 -8 9 -18 27 -21 41 -4 13 -16 35 -28 48 -12 13 -31 45 -43 72 -118 271
-136 362 -136 693 0 189 4 244 22 340 16 83 73 260 84 260 5 0 7 -24 5 -52z
m4365 -449 c31 -22 57 -44 57 -49 0 -4 -54 -8 -120 -9 -66 0 -120 4 -120 8 0
10 102 91 115 91 6 0 36 -18 68 -41z m-224 -162 c-53 -29 -126 -74 -162 -100
-36 -26 -70 -47 -75 -47 -18 0 -102 71 -96 81 19 31 303 116 394 118 32 1 26
-4 -61 -52z m476 22 c119 -30 235 -74 235 -90 0 -10 -98 -81 -107 -77 -5 2
-48 30 -98 62 -49 33 -126 77 -170 97 l-80 38 50 1 c28 0 104 -14 170 -31z
m-317 -156 l-3 -138 -65 3 c-80 3 -89 11 -66 59 29 63 120 213 128 213 5 0 7
-62 6 -137z m185 101 c81 -41 201 -116 211 -133 7 -11 -104 -71 -131 -71 -6 0
-26 26 -43 58 -18 31 -52 83 -76 114 -63 82 -63 83 39 32z m-278 -16 c-14 -24
-44 -78 -66 -120 -21 -43 -42 -78 -46 -78 -14 0 -143 63 -143 70 0 17 241 170
268 170 9 0 5 -14 -13 -42z m210 -45 c31 -43 66 -95 76 -115 18 -35 18 -38 2
-47 -10 -5 -48 -12 -85 -16 l-68 -7 0 131 c0 74 4 131 9 131 5 0 35 -35 66
-77z m574 41 c23 -20 40 -38 38 -41 -7 -6 -107 57 -107 68 0 19 28 8 69 -27z
m-1008 -189 c41 -19 79 -35 86 -35 18 0 18 0 -31 -135 -25 -66 -54 -156 -66
-200 -12 -44 -23 -85 -25 -92 -3 -8 -21 -7 -72 4 -86 19 -283 82 -283 90 0 15
67 123 116 188 42 56 190 215 200 215 1 0 35 -16 75 -35z m856 -47 c82 -83
178 -209 215 -282 24 -47 27 -45 -112 -90 -118 -38 -215 -60 -229 -52 -5 3
-12 27 -16 53 -11 80 -35 163 -76 266 -21 55 -39 103 -39 108 0 10 137 77 160
78 9 1 52 -36 97 -81z m-261 -102 c36 -89 100 -323 91 -332 -11 -11 -137 -24
-234 -24 l-103 0 0 103 c0 56 3 152 7 213 l6 112 63 7 c35 3 76 10 91 14 15 5
31 5 36 2 4 -4 23 -47 43 -95z m-356 80 l75 -12 0 -214 0 -215 -60 3 c-136 6
-245 24 -245 39 0 66 122 414 144 412 6 0 45 -6 86 -13z m3586 -223 c-7 -39
-10 -175 -4 -193 8 -20 44 -198 57 -280 6 -36 20 -114 31 -174 24 -132 27
-324 5 -423 -19 -90 -63 -211 -108 -300 -42 -82 -42 -83 -23 -83 15 0 72 70
131 160 17 25 32 47 35 50 13 12 70 108 70 117 0 6 14 23 30 36 17 14 30 30
30 34 0 19 89 115 225 244 97 91 237 244 255 277 8 15 27 43 43 63 15 20 27
40 27 46 0 6 10 21 23 35 12 13 28 40 36 59 51 130 83 229 82 256 -1 17 3 34
8 37 22 14 26 -253 5 -309 -6 -16 -8 -16 -16 -1 -6 11 -6 22 0 29 13 17 11 47
-3 47 -13 0 -35 -42 -35 -65 0 -8 9 -19 20 -25 11 -6 20 -18 20 -26 0 -8 5
-12 10 -9 6 3 10 -5 10 -19 0 -14 -4 -27 -8 -30 -5 -3 -9 -20 -10 -39 -1 -19
-6 -47 -13 -63 -6 -16 -13 -46 -15 -66 -2 -20 -22 -74 -44 -120 -22 -46 -40
-87 -40 -91 0 -4 -8 -20 -19 -35 -10 -15 -45 -69 -76 -120 -32 -51 -63 -96
-69 -100 -6 -4 -23 -25 -38 -47 -44 -65 -185 -197 -302 -284 -60 -45 -113 -81
-118 -81 -5 0 -32 -20 -60 -44 -27 -24 -62 -50 -77 -57 -14 -7 -33 -19 -41
-25 -32 -26 -374 -243 -378 -240 -7 8 18 190 27 195 5 3 17 33 26 66 10 33 21
65 25 70 4 6 8 21 8 35 0 14 7 63 16 110 9 47 20 108 26 135 16 90 29 226 40
440 6 116 13 216 15 222 2 7 11 10 20 7 8 -3 15 -2 15 4 0 5 -7 13 -16 16 -12
5 -14 20 -11 83 2 43 7 85 10 93 3 8 11 42 18 74 17 88 54 207 85 276 29 63
49 79 40 33z m-6912 -86 c32 -72 75 -258 88 -376 5 -53 15 -102 20 -108 6 -7
8 -19 5 -27 -3 -8 3 -74 13 -148 24 -178 40 -310 70 -608 6 -58 13 -120 15
-137 3 -24 0 -33 -11 -33 -23 0 -16 -17 11 -24 15 -4 25 -14 25 -24 0 -18 50
-192 72 -252 7 -19 23 -52 36 -73 12 -21 19 -43 16 -49 -4 -7 -9 -7 -13 0 -3
5 -20 18 -37 28 -38 22 -274 180 -290 193 -6 5 -73 48 -150 96 -131 83 -212
142 -287 209 -18 15 -62 52 -98 81 -37 30 -81 73 -100 97 -18 24 -56 70 -84
102 -92 107 -186 250 -225 340 -11 26 -23 46 -29 46 -5 0 -12 17 -16 38 -4 20
-10 42 -15 47 -8 11 -26 80 -41 165 -8 46 -7 146 4 334 2 39 27 65 27 29 0
-20 24 -92 45 -140 8 -17 15 -37 15 -45 0 -8 4 -18 9 -24 5 -5 29 -47 53 -94
42 -81 119 -192 152 -220 9 -7 16 -16 16 -21 0 -4 37 -45 83 -92 45 -46 114
-119 152 -161 39 -43 86 -94 106 -114 49 -50 219 -278 219 -294 0 -7 12 -24
26 -38 14 -14 46 -51 71 -83 30 -39 49 -55 55 -49 7 7 5 18 -6 33 -9 13 -16
31 -16 41 0 9 -7 24 -16 32 -22 22 -62 143 -86 260 -23 115 -21 258 6 446 9
58 21 141 27 185 6 44 15 103 20 130 6 28 12 109 15 180 5 131 10 175 19 175
3 0 16 -24 29 -53z m2922 -106 c64 -17 118 -32 120 -33 1 -2 -2 -25 -7 -53 -5
-27 -15 -113 -21 -190 l-13 -140 -225 0 -225 0 2 55 c1 30 8 84 14 120 12 68
84 287 100 306 7 8 27 5 73 -12 36 -13 117 -37 182 -53z m1287 52 c3 -10 20
-58 37 -108 36 -104 60 -232 60 -316 l0 -59 -224 0 c-258 0 -231 -14 -235 125
-1 50 -6 122 -11 160 -16 121 -25 109 103 139 61 15 139 38 172 51 73 29 91
30 98 8z m-908 -112 l100 -6 2 -170 c2 -93 -1 -176 -6 -183 -6 -11 -43 -12
-180 -6 l-171 7 0 29 c0 41 29 320 35 337 4 11 18 12 63 6 31 -5 102 -11 157
-14z m487 -16 c5 -16 12 -103 15 -193 l6 -162 -184 2 -184 3 -3 174 c-2 133 1
176 10 183 7 4 58 8 113 9 55 0 120 4 145 9 64 11 73 9 82 -25z m1814 -72
c-10 -10 -19 5 -10 18 6 11 8 11 12 0 2 -7 1 -15 -2 -18z m23 -47 c16 -19 11
-35 -50 -161 -27 -55 -49 -107 -49 -116 0 -10 -4 -19 -9 -21 -5 -1 -20 -25
-35 -53 -14 -27 -31 -58 -36 -67 -6 -10 -14 -26 -20 -35 -5 -10 -24 -43 -42
-73 -28 -46 -34 -51 -36 -32 -2 12 -8 20 -13 17 -13 -8 -11 -45 2 -45 10 0
-28 -62 -43 -68 -4 -2 -8 -9 -8 -15 0 -21 -132 -179 -219 -262 -129 -124 -226
-226 -224 -236 2 -5 -9 -11 -25 -15 -53 -12 -88 -22 -156 -48 -39 -14 -71 -24
-73 -22 -2 2 14 14 35 28 21 14 52 39 69 54 41 39 116 101 175 146 78 59 244
232 268 279 7 13 23 35 35 49 56 63 212 316 266 433 12 26 28 47 36 47 10 0
13 6 9 16 -10 26 32 104 51 97 12 -5 14 -1 8 17 -4 12 -3 32 3 44 5 11 15 34
21 49 9 23 14 26 29 18 10 -5 24 -17 31 -25z m-3218 -264 l96 -2 6 -98 c7
-115 29 -230 63 -327 14 -38 27 -78 30 -87 5 -14 -15 -28 -100 -69 -59 -28
-108 -50 -110 -48 -23 29 -92 175 -115 245 -46 137 -84 355 -67 382 3 6 27 9
53 7 27 -1 91 -3 144 -3z m601 -187 c4 -99 9 -189 10 -200 3 -17 -9 -22 -83
-41 -48 -11 -130 -36 -184 -53 -53 -18 -101 -29 -105 -24 -5 4 -22 49 -39 98
-35 104 -61 251 -61 343 l0 62 228 -2 227 -3 7 -180z m386 166 c4 -11 6 -93 4
-184 l-3 -164 -112 -7 c-62 -4 -132 -11 -157 -16 -27 -5 -49 -5 -54 1 -15 14
-24 110 -25 257 l-1 132 170 0 c159 0 171 -1 178 -19z m412 -29 c0 -45 -24
-225 -41 -301 l-11 -53 -42 6 c-43 7 -238 25 -269 26 -17 0 -18 12 -16 162 1
89 4 170 7 180 4 17 19 18 188 18 l184 0 0 -38z m425 31 l78 -6 -7 -78 c-10
-123 -86 -386 -117 -405 -5 -3 -44 6 -87 20 -42 14 -124 37 -182 52 -58 14
-108 29 -112 33 -4 4 -1 40 6 81 8 41 20 122 26 180 7 58 14 111 16 118 4 14
240 17 379 5z m426 -63 c-6 -136 -58 -315 -132 -460 -27 -52 -53 -101 -58
-109 -7 -12 -23 -6 -83 31 -40 25 -92 55 -115 67 -24 12 -43 22 -43 24 0 1 14
36 30 76 43 104 69 209 82 329 l12 102 155 -2 155 -3 -3 -55z m1938 -192 c-84
-212 -90 -236 -90 -371 0 -70 2 -140 5 -155 12 -55 -6 -57 -84 -13 -40 23 -97
47 -126 54 l-53 12 29 47 c17 27 30 54 30 60 0 7 14 33 31 58 16 25 42 67 56
94 13 27 38 63 54 80 16 17 29 35 29 39 0 11 123 147 132 147 5 0 -1 -24 -13
-52z m-6253 -85 c71 -78 134 -160 134 -171 0 -4 14 -27 30 -49 35 -48 140
-230 140 -244 0 -5 15 -37 33 -72 41 -79 58 -123 92 -240 10 -33 13 -62 9 -66
-15 -13 -265 -82 -275 -76 -5 4 -20 30 -32 58 -23 50 -41 151 -67 376 -6 52
-15 102 -20 112 -7 12 -6 20 1 24 7 5 5 11 -5 18 -8 7 -20 39 -26 72 -13 63
-47 170 -74 226 -8 19 -19 53 -25 76 -8 38 -7 42 8 34 9 -5 44 -40 77 -78z
m3054 -181 c0 -71 -3 -170 -6 -219 l-7 -90 -56 -7 c-31 -3 -72 -9 -92 -12
l-37 -6 -31 80 c-67 174 -105 347 -79 357 22 9 159 22 236 24 l72 1 0 -128z
m251 112 c43 -4 82 -10 88 -13 14 -9 -21 -150 -77 -306 l-39 -110 -89 4 c-49
2 -92 5 -96 8 -5 2 -8 98 -8 212 0 114 3 211 8 215 4 5 36 5 72 2 36 -3 99 -9
141 -12z m-602 -89 c15 -83 55 -220 86 -295 31 -73 31 -77 3 -86 -13 -4 -44
-17 -69 -29 -82 -39 -75 -40 -151 32 -83 81 -163 184 -213 275 l-36 66 58 22
c70 26 259 78 289 79 19 1 23 -7 33 -64z m909 30 c151 -40 202 -59 202 -75 0
-6 -12 -32 -27 -58 -76 -133 -265 -340 -300 -329 -13 4 -149 62 -171 73 -1 1
13 44 31 95 33 90 64 194 87 287 8 29 16 42 28 42 9 0 77 -16 150 -35z m3637
-183 c-10 -31 -19 -68 -22 -81 -2 -14 -16 -50 -30 -80 -14 -31 -32 -73 -40
-93 -51 -127 -266 -389 -430 -523 -44 -36 -79 -33 -303 25 -19 5 -72 14 -117
21 -46 7 -83 16 -83 21 0 13 58 45 107 60 23 7 43 16 43 20 0 4 6 8 13 8 7 0
28 11 47 24 19 13 49 26 67 30 18 4 43 16 56 27 14 10 57 34 95 53 39 18 85
45 102 60 17 14 36 26 42 26 38 0 232 178 321 295 34 44 65 82 69 83 4 2 8 12
8 23 0 20 20 58 49 93 15 18 16 17 19 -8 2 -14 -4 -52 -13 -84z m-4947 66 c47
-88 144 -219 219 -296 l84 -87 -28 -23 c-69 -58 -67 -57 -125 -22 -29 18 -80
54 -113 81 -99 78 -255 249 -255 277 0 9 174 101 193 102 4 0 16 -14 25 -32z
m1667 -19 c126 -71 124 -69 90 -119 -67 -96 -290 -282 -398 -331 -27 -12 -30
-10 -78 38 l-51 50 67 64 c68 65 188 218 237 302 15 26 31 47 36 47 4 0 48
-23 97 -51z m-4967 -99 c24 -38 58 -87 75 -107 52 -62 207 -213 219 -213 5 0
49 -26 96 -57 48 -32 103 -66 122 -77 19 -10 46 -26 60 -35 14 -10 41 -24 60
-31 42 -17 147 -77 154 -89 6 -10 -76 -20 -209 -27 -49 -3 -126 -8 -170 -12
l-80 -7 -51 58 c-75 83 -175 217 -191 256 -8 18 -24 50 -37 70 -28 45 -69 163
-90 258 -18 83 -18 83 -8 83 4 -1 26 -32 50 -70z m6869 -94 c124 -15 183 -38
246 -95 56 -50 70 -83 62 -145 -23 -183 -76 -396 -127 -513 -22 -51 -43 -93
-47 -93 -3 0 -22 17 -41 37 -72 73 -165 92 -467 93 -282 0 -687 -61 -923 -139
-47 -16 -139 -41 -205 -55 -66 -15 -160 -40 -210 -56 -49 -16 -135 -43 -190
-59 -55 -16 -219 -65 -365 -109 -448 -135 -726 -210 -1095 -294 -49 -11 -108
-26 -130 -34 -75 -26 -309 -72 -440 -85 -71 -8 -213 -14 -315 -13 -245 1 -383
25 -518 91 -52 25 -106 56 -122 69 -67 57 -65 132 7 284 28 58 70 165 93 238
23 72 45 134 49 136 3 2 48 -20 100 -49 189 -106 309 -126 623 -100 112 9 210
18 219 21 9 2 108 24 220 49 112 24 276 66 364 93 88 27 275 84 415 126 322
97 619 190 785 246 50 17 140 45 200 62 61 16 126 39 145 49 19 10 82 29 140
42 58 14 188 48 290 76 258 72 414 99 770 134 90 9 366 5 467 -7z m-2827 -206
c0 -77 -4 -130 -10 -130 -19 0 -150 198 -150 228 0 12 67 29 123 31 l37 1 0
-130z m196 117 c11 -11 -49 -129 -103 -204 -24 -35 -46 -63 -49 -63 -2 0 -4
63 -4 141 l0 141 74 -4 c41 -2 78 -7 82 -11z m161 -52 c29 -13 53 -28 53 -32
0 -5 -35 -32 -77 -60 -83 -54 -223 -128 -223 -117 0 4 15 30 34 58 18 28 49
82 67 119 32 65 35 68 63 63 17 -4 54 -17 83 -31z m-537 -22 c14 -26 42 -74
63 -106 20 -32 37 -60 37 -62 0 -15 -218 104 -263 143 -16 14 -13 17 45 43 35
16 70 29 78 29 8 0 26 -21 40 -47z m-757 2 c72 -19 99 -36 123 -80 25 -48 15
-62 -76 -106 -96 -47 -210 -75 -380 -95 -306 -35 -520 -88 -603 -152 -57 -43
-85 -95 -138 -254 -57 -173 -73 -208 -97 -208 -10 0 -22 -4 -28 -10 -5 -5 -59
-19 -119 -30 -61 -12 -231 -52 -380 -90 -327 -83 -414 -99 -669 -120 -117 -9
-236 -4 -236 10 0 4 27 18 60 33 209 90 520 312 520 371 0 21 -9 24 -118 51
-197 48 -541 183 -535 210 2 6 42 13 90 17 180 16 475 68 663 118 41 11 142
33 225 50 82 17 238 57 345 89 271 82 507 128 930 181 90 12 166 23 169 26 11
10 202 3 254 -11z m606 -85 c33 -21 99 -60 147 -84 103 -52 91 -57 -55 -26
-95 21 -251 76 -251 88 1 11 72 62 87 62 8 0 40 -18 72 -40z m835 6 c20 -18
36 -38 36 -44 0 -13 -61 -37 -185 -73 -96 -28 -215 -48 -215 -36 0 3 40 27 88
51 48 25 115 66 147 90 33 25 68 45 77 45 9 1 33 -14 52 -33z m-1331 -218 c-5
-35 -23 -55 -23 -25 0 6 -12 17 -26 24 -21 10 -30 10 -46 -1 -19 -14 -19 -14
-1 -25 10 -6 14 -11 8 -12 -38 -7 -62 -3 -79 12 -17 17 -17 18 25 29 24 6 52
15 61 20 10 6 27 10 37 10 11 0 23 5 27 11 12 20 21 -5 17 -43z m176 -29 l23
-19 -23 -10 c-23 -10 -23 -10 5 -6 26 3 130 -42 146 -64 3 -4 24 -15 47 -25
24 -10 41 -20 40 -22 -8 -7 -76 19 -95 37 -21 19 -22 20 -22 2 0 -10 5 -23 12
-30 9 -9 7 -12 -10 -12 -34 0 -84 24 -111 54 -14 14 -32 26 -42 26 -10 0 -21
5 -24 10 -3 6 -1 10 4 10 19 0 12 15 -13 26 -20 9 -23 9 -19 -2 3 -9 -2 -14
-12 -14 -12 0 -15 5 -11 16 3 9 6 25 6 35 0 11 4 18 9 14 5 -3 12 -1 16 5 7
11 34 0 74 -31z m678 29 c6 -7 8 -30 5 -52 -4 -32 -10 -40 -39 -53 -19 -8 -36
-13 -38 -11 -2 2 1 25 5 53 4 27 5 55 3 62 -7 17 51 17 64 1z m-1047 -23 c0
-3 -5 -14 -12 -25 -15 -23 -4 -37 16 -21 10 8 16 9 21 1 3 -5 0 -13 -9 -16 -8
-3 -12 -12 -9 -19 3 -11 9 -11 22 -3 13 8 25 7 47 -5 17 -9 35 -12 41 -9 18
12 32 78 19 93 -9 11 -8 11 6 0 10 -7 14 -19 11 -28 -5 -12 -2 -15 10 -10 20
8 33 -11 18 -26 -6 -6 -11 -18 -11 -26 0 -34 -21 -91 -32 -85 -7 4 -8 -4 -3
-24 7 -34 -7 -49 -25 -26 -10 11 -10 18 -2 26 15 15 16 68 2 68 -13 0 -29 -40
-23 -56 2 -7 0 -15 -5 -18 -5 -3 -8 -17 -7 -31 2 -14 -1 -23 -6 -19 -5 3 -9
-3 -10 -13 0 -10 -3 -13 -5 -6 -6 13 -60 7 -81 -10 -14 -11 -7 -31 8 -21 5 3
7 10 4 15 -4 5 21 8 56 7 41 -1 64 2 67 10 5 17 22 15 22 -2 0 -27 -124 -58
-221 -55 -30 1 -62 -1 -69 -6 -18 -11 -288 -13 -360 -3 -100 14 -151 27 -190
49 -22 12 -37 26 -34 30 2 4 -1 11 -7 15 -8 4 -9 3 -5 -4 11 -18 -5 -14 -41
11 -41 27 -49 51 -29 82 19 30 48 45 89 50 40 5 55 9 92 24 16 7 37 10 47 8
10 -3 18 -2 18 3 0 13 41 21 138 27 79 4 92 2 92 -11 0 -9 7 -16 16 -16 8 0
13 -4 9 -9 -3 -5 -1 -12 4 -16 5 -3 13 1 18 8 4 7 16 17 27 20 15 6 17 3 13
-12 -3 -14 -1 -18 9 -14 8 3 14 14 14 24 0 14 7 19 25 19 19 0 25 -5 23 -17
-2 -10 -7 -21 -13 -25 -5 -5 5 -6 23 -5 17 2 35 7 40 12 4 5 2 5 -4 2 -7 -4
-15 0 -18 9 -4 9 -5 18 -4 18 2 1 14 7 28 13 l25 12 -27 0 c-14 1 -28 -3 -30
-7 -4 -12 -78 -2 -78 9 0 5 16 9 36 9 19 0 43 4 52 8 9 5 31 5 47 1 17 -3 24
-7 18 -8 -7 0 -13 -12 -13 -25 0 -13 -6 -27 -12 -29 -10 -4 -10 -6 0 -6 7 -1
17 10 21 23 5 13 19 26 30 29 12 3 21 12 21 21 0 10 9 16 25 16 14 0 25 -2 25
-5z m-270 -50 c0 -10 -11 -15 -35 -15 -24 0 -35 5 -35 15 0 10 11 15 35 15 24
0 35 -5 35 -15z m380 -16 c0 -11 -3 -11 -24 -3 -23 9 -20 23 4 17 11 -3 20 -9
20 -14z m4298 -115 c201 -29 437 -96 562 -159 77 -39 210 -132 210 -147 0 -4
-89 -8 -197 -8 -212 0 -338 -10 -446 -36 -72 -17 -87 -31 -87 -81 0 -43 27
-78 156 -208 118 -119 178 -201 190 -264 4 -17 5 -31 2 -31 -2 0 -61 25 -131
55 -70 30 -162 64 -205 76 -42 12 -111 32 -152 44 -146 44 -357 94 -525 125
-244 44 -310 61 -342 86 l-27 22 28 41 29 41 143 0 c79 0 166 5 194 11 117 25
219 156 290 374 12 39 25 74 28 79 6 11 132 2 280 -20z m-3859 -15 c-8 -5 -16
-3 -21 4 -14 22 -8 28 13 16 17 -9 19 -13 8 -20z m-2799 -169 c80 -26 160 -51
178 -55 17 -3 32 -10 32 -15 0 -4 -16 -20 -35 -34 -19 -15 -35 -22 -35 -17 0
6 -5 11 -11 11 -20 0 -169 71 -217 103 -70 46 -102 72 -77 62 11 -4 85 -29
165 -55z m5607 13 c-50 -104 -95 -171 -166 -245 -41 -43 -81 -78 -88 -78 -7 0
-13 -5 -13 -10 0 -17 -147 -108 -211 -131 -97 -35 -89 -57 13 -38 108 19 138
25 318 62 120 24 177 28 184 12 10 -26 78 -50 191 -66 39 -6 75 -16 80 -24 7
-8 22 -11 38 -8 16 3 54 1 85 -5 31 -6 98 -19 147 -28 83 -16 133 -34 93 -34
-10 0 -36 -13 -60 -29 -82 -54 -353 -140 -478 -152 -96 -9 -380 -3 -435 10
-141 31 -232 53 -260 64 -16 7 -34 11 -38 9 -9 -3 -59 11 -202 53 -99 29 -249
57 -270 49 -7 -3 -16 -1 -19 5 -4 5 -33 13 -66 17 -33 4 -60 11 -60 15 0 5 2
9 5 9 10 0 250 60 285 71 51 16 226 105 268 136 84 62 294 263 323 309 12 20
31 34 52 39 29 6 230 30 284 34 l22 1 -22 -47z m439 35 c54 -15 119 -67 128
-104 9 -36 -23 -84 -74 -112 -34 -18 -64 -22 -185 -28 -80 -4 -145 -4 -145 -1
0 11 45 72 78 108 17 19 32 37 32 41 0 4 6 13 13 20 6 7 25 30 40 51 31 40 43
43 113 25z m-189 -14 c3 -10 -133 -196 -200 -273 -16 -19 -34 -46 -41 -60 -9
-21 -19 -27 -53 -29 -24 -2 -43 -1 -43 1 0 3 12 19 28 35 15 16 40 44 56 63
15 19 50 61 78 93 45 54 98 148 98 176 0 14 72 9 77 -6z m-5919 -203 c34 -24
62 -50 62 -56 0 -7 -12 -16 -27 -20 -23 -5 -32 -1 -53 23 -22 25 -56 77 -68
106 -6 11 9 2 86 -53z m1172 -173 c0 -3 -16 -1 -35 5 -40 12 -45 24 -12 29 20
3 46 -16 47 -34z m-410 -72 c0 -31 23 -37 160 -41 131 -4 220 -23 220 -46 0
-10 4 -19 9 -21 4 -1 20 -22 35 -45 14 -24 30 -43 35 -43 10 0 117 -63 140
-83 9 -8 38 -22 64 -32 31 -12 44 -21 36 -26 -18 -11 -176 -32 -199 -26 -10 3
-21 0 -23 -7 -4 -13 -143 -11 -275 4 -65 7 -91 15 -109 31 -14 14 -23 18 -23
9 0 -15 -94 -7 -115 10 -7 6 -42 19 -77 29 -110 32 -338 162 -338 193 0 4 21
9 48 13 26 3 63 10 82 15 118 30 192 52 240 69 74 27 90 27 90 -3z m3285 -141
c28 -2 75 -6 105 -8 30 -3 62 -7 70 -10 8 -4 53 -15 100 -27 46 -11 89 -25 94
-30 6 -6 20 -10 31 -10 25 0 143 -46 165 -64 8 -7 35 -18 59 -25 24 -7 61 -23
81 -36 20 -13 88 -44 151 -69 63 -26 128 -53 144 -60 95 -43 173 -59 340 -68
222 -12 364 -3 462 28 42 13 79 24 84 24 4 0 32 14 61 31 117 70 138 80 138
67 0 -25 -59 -85 -153 -156 -51 -39 -104 -77 -118 -84 -13 -8 -43 -26 -66 -41
-24 -15 -48 -27 -54 -27 -11 0 -62 -26 -89 -46 -79 -57 -396 -99 -590 -78 -96
10 -151 21 -162 32 -7 7 -24 12 -39 12 -15 0 -31 5 -34 10 -4 6 -12 9 -18 8
-13 -3 -126 40 -142 54 -5 4 -15 8 -23 8 -17 0 -120 49 -127 60 -3 5 -23 17
-43 26 -71 31 -83 38 -120 69 -20 18 -59 47 -87 66 -27 19 -66 46 -85 60 -67
50 -236 138 -292 153 -56 14 -215 15 -238 1 -22 -14 -8 -35 37 -55 25 -11 75
-38 110 -60 34 -22 66 -40 70 -40 5 0 35 -18 68 -40 33 -22 63 -40 67 -40 15
0 254 -174 295 -213 33 -32 51 -47 59 -47 7 0 50 -41 141 -132 18 -18 33 -39
33 -46 0 -9 7 -11 20 -7 17 6 20 2 20 -29 0 -20 -3 -36 -7 -36 -7 0 -111 -74
-140 -100 -7 -6 -13 -7 -13 -3 0 4 -4 2 -9 -6 -7 -11 -19 -6 -60 28 -28 24
-51 46 -51 51 0 12 -189 201 -240 239 -25 18 -56 44 -70 57 -53 49 -137 117
-172 140 -21 13 -38 29 -38 35 0 12 -40 48 -55 49 -5 0 -23 13 -40 28 -31 30
-149 104 -222 141 -28 14 -53 19 -70 16 -28 -6 -134 -55 -143 -66 -3 -4 -16
-10 -29 -14 -13 -4 -59 -31 -103 -61 -43 -30 -83 -54 -89 -54 -5 0 -12 -6 -15
-14 -3 -8 -27 -30 -52 -50 -84 -63 -94 -71 -117 -93 -13 -13 -27 -23 -30 -23
-12 0 -208 -192 -250 -245 -13 -16 -48 -57 -79 -89 -31 -33 -56 -65 -56 -72 0
-19 -27 -25 -40 -8 -7 8 -18 14 -24 14 -6 0 -40 27 -76 61 -58 54 -63 62 -47
71 10 5 30 7 44 3 23 -5 24 -5 9 10 -9 9 -16 19 -16 21 0 10 103 114 112 114
6 0 24 14 41 30 60 57 74 70 81 70 3 0 14 8 25 18 53 49 225 182 236 182 3 0
14 8 25 17 23 20 142 89 183 106 15 6 27 15 27 19 0 4 6 8 14 8 7 0 30 14 51
30 21 17 55 35 77 42 31 9 38 16 36 32 -3 20 -10 21 -110 23 -151 3 -219 -21
-387 -134 -35 -24 -67 -43 -73 -43 -5 0 -18 -9 -30 -20 -12 -11 -52 -38 -89
-61 -37 -22 -73 -47 -80 -55 -7 -8 -44 -34 -83 -57 -39 -23 -80 -47 -91 -54
-11 -7 -27 -15 -35 -18 -49 -21 -109 -51 -132 -67 -14 -10 -38 -18 -53 -18
-14 0 -40 -7 -57 -16 -33 -17 -189 -54 -246 -58 -17 -2 -35 -6 -39 -9 -8 -8
-117 -9 -125 -1 -4 3 -36 7 -72 10 -59 3 -165 30 -221 54 -11 5 -40 16 -65 24
-74 23 -119 48 -126 68 -3 12 -15 18 -33 18 -35 0 -91 19 -91 31 0 5 -7 9 -15
9 -7 0 -18 6 -22 13 -4 6 -26 21 -48 32 -22 11 -49 29 -61 40 -11 11 -48 44
-82 73 -87 74 -81 90 16 42 140 -69 173 -82 255 -102 115 -28 125 -29 287 -30
135 -1 237 11 285 32 35 16 128 40 133 35 3 -3 0 -5 -7 -5 -7 0 -10 -4 -6 -10
4 -6 15 -5 30 2 13 6 23 14 20 18 -3 5 73 42 95 46 14 2 48 19 71 35 14 10 44
21 67 25 27 4 42 12 45 24 4 16 13 18 68 14 34 -3 69 -10 76 -16 11 -8 12 -7
7 6 -5 12 0 16 21 16 14 0 24 -4 21 -9 -3 -5 11 0 31 10 21 11 49 19 64 19 15
0 40 5 55 10 15 6 54 13 87 16 33 2 67 9 76 13 9 5 68 19 131 31 63 12 135 28
159 36 25 8 77 22 115 30 104 21 208 49 235 63 17 10 26 10 34 2 9 -9 9 -14 0
-19 -6 -4 8 -7 30 -8 23 0 75 -11 114 -24 l73 -23 102 34 c174 56 280 65 543
44z"/>
<path d="M8840 8231 c0 -13 26 -32 33 -24 14 13 6 33 -13 33 -11 0 -20 -4 -20
-9z"/>
<path d="M9048 8118 c-28 -35 -22 -55 7 -24 25 27 32 46 18 46 -5 0 -16 -10
-25 -22z"/>
<path d="M9087 7944 c-4 -4 -7 -14 -7 -23 0 -11 3 -12 11 -4 6 6 10 16 7 23
-2 6 -7 8 -11 4z"/>
<path d="M8983 7933 c-15 -6 -17 -43 -3 -43 12 0 24 25 18 38 -1 5 -9 7 -15 5z"/>
<path d="M8975 7850 c-3 -5 -1 -10 4 -10 6 0 11 5 11 10 0 6 -2 10 -4 10 -3 0
-8 -4 -11 -10z"/>
<path d="M8570 7744 c0 -3 6 -12 14 -20 18 -18 26 -18 26 0 0 8 -7 17 -16 20
-19 7 -24 8 -24 0z"/>
<path d="M8820 7619 c-7 -11 -9 -23 -6 -26 8 -9 47 28 40 38 -9 15 -23 10 -34
-12z"/>
<path d="M8984 7483 c-12 -19 5 -85 21 -80 14 5 15 97 1 97 -6 0 -16 -7 -22
-17z"/>
<path d="M3051 8463 c-23 -103 -30 -146 -51 -288 -28 -188 -78 -608 -102 -855
-17 -180 -17 -819 0 -960 18 -148 62 -393 74 -407 6 -8 42 -10 116 -8 59 3
271 7 472 10 201 3 366 7 368 10 7 15 -1 23 -29 29 -54 11 -202 137 -183 156
14 14 169 28 240 23 74 -6 74 -6 129 155 21 62 42 115 47 118 11 7 50 -82 83
-189 14 -47 31 -90 39 -96 18 -15 183 -12 196 4 26 32 70 128 70 155 0 24 -10
38 -52 71 -77 60 -168 146 -168 158 0 20 84 33 177 29 104 -6 117 0 126 49 9
48 66 191 84 209 14 13 17 13 29 -5 22 -31 84 -218 78 -234 -3 -8 2 -22 11
-31 14 -13 33 -15 135 -9 129 7 150 1 150 -43 0 -26 -39 -59 -134 -114 -48
-28 -62 -42 -64 -63 -4 -33 4 -34 84 -8 32 11 70 21 84 23 20 2 26 10 32 45 4
23 14 56 23 73 14 28 24 107 14 113 -40 26 -173 129 -199 154 -34 33 -34 34
-16 48 25 19 131 19 210 0 33 -8 63 -12 68 -9 10 6 29 50 67 155 28 73 28 80
29 305 1 126 4 403 8 616 3 213 3 392 -1 398 -4 6 -19 0 -39 -15 -18 -14 -38
-25 -44 -25 -6 0 -12 -4 -14 -8 -3 -9 -88 -69 -128 -91 -234 -128 -453 -210
-674 -252 -85 -16 -148 -21 -266 -20 -259 1 -400 39 -578 158 -155 103 -256
213 -457 501 -9 12 -20 22 -24 22 -4 0 -13 -26 -20 -57z m487 -823 c83 -39
138 -78 212 -149 l61 -59 -7 -396 c-4 -218 -11 -396 -15 -396 -4 0 -14 8 -21
18 -21 29 -110 99 -154 121 -23 12 -69 27 -103 34 l-62 13 -3 334 c-2 184 -7
374 -11 423 l-8 87 24 0 c13 0 52 -13 87 -30z m-153 0 c16 -18 18 -46 17 -352
0 -183 -2 -362 -5 -398 -4 -61 -6 -65 -31 -68 -31 -4 -29 -17 -31 228 0 91 -2
262 -3 380 -2 118 -3 218 -3 223 2 15 38 6 56 -13z m836 -206 c-2 -121 -9
-307 -15 -414 l-11 -194 -66 -12 c-88 -16 -136 -42 -212 -114 -34 -33 -66 -60
-70 -60 -7 0 0 745 8 786 7 32 113 132 184 172 85 48 120 61 156 59 l30 -2 -4
-221z m111 86 c-9 -380 -22 -684 -30 -692 -6 -6 -20 -8 -33 -6 -22 3 -24 8
-22 48 1 25 4 149 8 275 3 127 10 273 16 326 5 54 7 109 3 123 -10 39 2 58 33
54 l28 -3 -3 -125z"/>
<path d="M7616 8480 c-14 -22 -30 -40 -35 -40 -6 0 -12 -8 -15 -18 -4 -10 -14
-27 -24 -38 -9 -11 -36 -43 -59 -71 -106 -128 -266 -267 -373 -322 -184 -96
-269 -131 -364 -150 -22 -5 -77 -16 -121 -26 -65 -14 -108 -16 -230 -11 -83 3
-177 13 -210 22 -33 9 -82 20 -110 26 -27 6 -57 17 -66 24 -8 8 -26 14 -38 14
-20 0 -147 54 -191 80 -8 5 -37 21 -65 35 -27 15 -59 35 -71 46 -11 10 -25 19
-31 19 -6 0 -30 16 -53 35 -23 19 -46 35 -50 35 -5 0 -30 18 -56 41 -26 23
-50 37 -55 32 -5 -5 -11 -167 -12 -361 -3 -267 -7 -355 -17 -367 -8 -10 -9
-15 -1 -15 8 0 11 -73 11 -253 l0 -253 30 -84 29 -85 147 -7 c87 -4 151 -11
158 -18 11 -11 -55 -81 -170 -176 -27 -23 -46 -44 -43 -48 3 -3 68 -9 145 -12
l139 -7 48 116 c68 163 70 168 87 165 8 -2 22 -29 32 -63 10 -33 30 -90 44
-127 21 -53 32 -68 48 -68 68 -2 248 -28 257 -37 15 -15 -47 -82 -130 -141
-37 -25 -70 -49 -75 -53 -5 -4 6 -43 24 -88 l32 -81 67 0 c36 0 89 3 117 6
l51 6 37 113 c24 72 48 125 67 146 28 33 29 33 43 15 8 -10 39 -74 68 -142
l52 -124 91 0 c116 -1 190 -24 190 -59 0 -18 -23 -41 -100 -100 -55 -42 -100
-81 -100 -85 0 -13 10 -13 400 -21 193 -3 366 -6 385 -7 19 0 42 2 50 5 8 3
23 8 33 11 9 3 19 11 21 18 26 97 31 124 46 228 6 41 17 116 25 165 12 79 19
179 30 415 20 417 15 816 -15 1190 -12 145 -37 357 -50 415 -5 22 -14 70 -21
108 -6 37 -15 67 -19 67 -4 0 -19 -18 -34 -40z m-79 -915 l34 -34 -3 -400 c-3
-382 -4 -400 -23 -421 -49 -55 -38 -54 -583 -46 -342 5 -512 11 -529 19 -13 6
-33 28 -44 49 -18 35 -19 62 -19 425 0 213 4 393 8 400 4 6 21 19 37 27 26 14
100 16 558 16 l529 0 35 -35z"/>
<path d="M6235 7850 c-3 -5 -1 -10 4 -10 6 0 11 5 11 10 0 6 -2 10 -4 10 -3 0
-8 -4 -11 -10z"/>
<path d="M4110 6333 c-7 -21 -26 -73 -42 -115 l-31 -77 -121 -3 c-113 -3 -121
-4 -121 -23 0 -14 27 -38 89 -81 50 -34 94 -70 99 -81 6 -15 -1 -46 -27 -116
-55 -148 -47 -168 39 -96 28 23 69 57 92 76 l42 34 68 -55 c83 -67 125 -91
147 -83 24 10 20 35 -24 136 -22 50 -40 95 -40 99 0 4 45 41 100 82 93 70 117
98 88 101 -7 1 -64 1 -125 -1 -88 -2 -114 1 -117 11 -63 226 -91 271 -116 192z"/>
<path d="M6510 6308 c-10 -24 -27 -77 -38 -118 l-20 -75 -108 0 c-112 0 -134
-5 -134 -31 0 -20 58 -73 118 -109 29 -16 52 -37 52 -46 0 -8 -13 -52 -30 -97
-33 -91 -37 -127 -16 -135 17 -7 119 52 161 94 17 16 35 29 41 29 5 0 28 -18
49 -41 52 -53 128 -109 149 -109 27 0 19 59 -19 147 -19 45 -35 90 -35 101 0
14 19 32 63 58 82 50 137 94 137 111 0 25 -52 35 -151 30 l-97 -6 -6 38 c-7
43 -40 151 -56 181 -17 32 -40 24 -60 -22z"/>
<path d="M7745 6240 c-3 -6 1 -7 9 -4 18 7 21 14 7 14 -6 0 -13 -4 -16 -10z"/>
<path d="M7681 5924 c0 -11 3 -14 6 -6 3 7 2 16 -1 19 -3 4 -6 -2 -5 -13z"/>
<path d="M7667 5869 c4 -13 9 -17 15 -11 11 11 3 32 -12 32 -4 0 -6 -9 -3 -21z"/>
<path d="M7620 5650 c0 -5 4 -10 9 -10 6 0 13 5 16 10 3 6 -1 10 -9 10 -9 0
-16 -4 -16 -10z"/>
<path d="M9235 8040 c3 -5 8 -10 11 -10 2 0 4 5 4 10 0 6 -5 10 -11 10 -5 0
-7 -4 -4 -10z"/>
<path d="M9276 7937 c3 -10 9 -15 12 -12 3 3 0 11 -7 18 -10 9 -11 8 -5 -6z"/>
<path d="M9440 7436 c0 -31 24 -40 44 -17 24 27 19 41 -14 41 -25 0 -30 -4
-30 -24z"/>
<path d="M9480 7250 c0 -5 5 -10 10 -10 6 0 10 5 10 10 0 6 -4 10 -10 10 -5 0
-10 -4 -10 -10z"/>
<path d="M9441 7014 c0 -11 3 -14 6 -6 3 7 2 16 -1 19 -3 4 -6 -2 -5 -13z"/>
<path d="M9400 6919 c0 -5 5 -7 10 -4 6 3 10 8 10 11 0 2 -4 4 -10 4 -5 0 -10
-5 -10 -11z"/>
<path d="M9260 6887 c0 -28 3 -35 15 -31 8 4 15 14 15 24 0 10 -7 23 -15 30
-13 11 -15 7 -15 -23z"/>
<path d="M9386 6733 c10 -40 14 -41 14 -5 0 18 -5 32 -10 32 -6 0 -8 -11 -4
-27z"/>
<path d="M9312 6609 c2 -7 10 -15 17 -17 8 -3 12 1 9 9 -2 7 -10 15 -17 17 -8
3 -12 -1 -9 -9z"/>
<path d="M9424 6595 c-7 -17 4 -37 17 -30 12 8 12 45 -1 45 -6 0 -13 -7 -16
-15z"/>
<path d="M9716 6451 c-4 -7 -5 -15 -2 -18 9 -9 19 4 14 18 -4 11 -6 11 -12 0z"/>
<path d="M8812 6375 c-15 -32 -15 -65 -2 -65 14 0 39 60 33 77 -8 20 -19 16
-31 -12z"/>
<path d="M9660 6220 c-6 -11 -18 -20 -26 -20 -11 0 -14 -6 -8 -22 9 -31 9 -31
39 -24 21 5 25 12 25 41 0 41 -15 53 -30 25z"/>
<path d="M9572 6198 c2 -6 10 -14 16 -16 7 -2 10 2 6 12 -7 18 -28 22 -22 4z"/>
<path d="M8900 6155 c0 -8 2 -15 4 -15 2 0 6 7 10 15 3 8 1 15 -4 15 -6 0 -10
-7 -10 -15z"/>
<path d="M9078 5918 c-3 -24 -2 -47 3 -52 11 -12 31 31 27 61 -5 44 -25 38
-30 -9z"/>
<path d="M9484 5869 c-3 -6 -1 -16 5 -22 8 -8 11 -5 11 11 0 24 -5 28 -16 11z"/>
<path d="M9101 5826 c-9 -11 -9 -19 1 -35 18 -29 28 -26 28 8 0 35 -13 47 -29
27z"/>
<path d="M8982 5779 c2 -7 10 -15 17 -17 8 -3 12 1 9 9 -2 7 -10 15 -17 17 -8
3 -12 -1 -9 -9z"/>
<path d="M9465 5771 c-8 -15 3 -31 21 -31 9 0 14 7 12 17 -4 20 -24 28 -33 14z"/>
<path d="M9000 5714 c0 -11 5 -14 16 -10 9 3 22 6 30 6 8 0 14 5 14 10 0 6
-13 10 -30 10 -21 0 -30 -5 -30 -16z"/>
<path d="M9155 5666 l-20 -16 20 -16 c18 -14 20 -14 23 0 2 9 2 23 0 32 -3 14
-5 14 -23 0z"/>
<path d="M9094 5538 c1 -65 8 -78 39 -78 15 0 17 5 12 30 -4 19 -3 30 4 30 6
0 11 7 11 16 0 12 -6 15 -21 11 -16 -4 -19 -2 -15 10 6 15 -9 43 -24 43 -4 0
-6 -28 -6 -62z"/>
<path d="M9502 5576 c-8 -19 -8 -27 3 -36 12 -10 17 -7 25 15 17 45 -8 64 -28
21z"/>
<path d="M9130 5341 c13 -25 27 -34 40 -26 16 10 -8 45 -31 45 -16 0 -18 -3
-9 -19z"/>
<path d="M9326 5333 c-3 -4 -6 -14 -6 -22 0 -9 -9 -22 -20 -29 -26 -16 -26
-32 1 -32 23 0 58 36 59 61 0 17 -23 32 -34 22z"/>
<path d="M9100 5265 c0 -18 9 -23 31 -18 27 7 24 20 -6 25 -15 3 -25 1 -25 -7z"/>
<path d="M9634 5215 c-7 -29 3 -56 26 -63 10 -4 11 4 6 34 -10 52 -23 64 -32
29z"/>
<path d="M9694 5137 c-8 -21 -3 -29 13 -19 8 5 9 13 3 22 -7 12 -10 12 -16 -3z"/>
<path d="M9460 5032 c0 -10 41 -35 47 -28 9 8 -17 36 -33 36 -8 0 -14 -3 -14
-8z"/>
<path d="M9497 4933 c-16 -3 -26 -10 -24 -16 5 -17 35 -21 52 -7 16 13 20 31
8 29 -5 -1 -21 -4 -36 -6z"/>
<path d="M9616 4904 c-9 -22 3 -32 14 -14 12 19 12 30 1 30 -5 0 -12 -7 -15
-16z"/>
<path d="M9541 4854 c0 -11 3 -14 6 -6 3 7 2 16 -1 19 -3 4 -6 -2 -5 -13z"/>
<path d="M9540 4805 c0 -8 5 -15 10 -15 6 0 10 7 10 15 0 8 -4 15 -10 15 -5 0
-10 -7 -10 -15z"/>
<path d="M9360 4795 c0 -8 0 -18 -1 -22 0 -4 4 -9 10 -11 6 -2 11 8 11 22 0
14 -4 26 -10 26 -5 0 -10 -7 -10 -15z"/>
<path d="M8785 4750 c10 -11 20 -18 23 -15 7 6 -18 35 -31 35 -5 0 -2 -9 8
-20z"/>
<path d="M7330 4970 c0 -5 5 -10 10 -10 6 0 10 5 10 10 0 6 -4 10 -10 10 -5 0
-10 -4 -10 -10z"/>
<path d="M2340 4290 c0 -5 5 -10 10 -10 6 0 10 5 10 10 0 6 -4 10 -10 10 -5 0
-10 -4 -10 -10z"/>
<path d="M9435 4339 c-12 -19 5 -23 22 -6 16 16 16 17 1 17 -9 0 -20 -5 -23
-11z"/>
<path d="M9250 4040 c0 -13 33 -21 42 -12 6 6 -1 11 -16 14 -14 3 -26 2 -26
-2z"/>
<path d="M8976 3921 c-3 -5 1 -14 9 -21 12 -10 15 -10 15 3 0 19 -16 31 -24
18z"/>
<path d="M8760 3710 c0 -5 5 -10 10 -10 6 0 10 5 10 10 0 6 -4 10 -10 10 -5 0
-10 -4 -10 -10z"/>
<path d="M1375 4080 c-3 -6 1 -7 9 -4 18 7 21 14 7 14 -6 0 -13 -4 -16 -10z"/>
<path d="M5660 3628 c0 -5 9 -8 19 -8 11 0 22 3 24 8 3 4 -6 7 -19 7 -13 0
-24 -3 -24 -7z"/>
<path d="M6875 3630 c3 -5 8 -10 11 -10 2 0 4 5 4 10 0 6 -5 10 -11 10 -5 0
-7 -4 -4 -10z"/>
<path d="M6758 3623 c7 -3 16 -2 19 1 4 3 -2 6 -13 5 -11 0 -14 -3 -6 -6z"/>
<path d="M6366 3515 c4 -8 10 -15 15 -15 5 0 9 7 9 15 0 8 -7 15 -15 15 -9 0
-12 -6 -9 -15z"/>
<path d="M5050 3350 c0 -5 5 -10 11 -10 5 0 7 5 4 10 -3 6 -8 10 -11 10 -2 0
-4 -4 -4 -10z"/>
<path d="M5080 3333 c1 -13 29 -59 30 -48 0 21 -13 55 -21 55 -5 0 -9 -3 -9
-7z"/>
<path d="M4490 3308 c1 -28 38 -200 45 -206 9 -9 -5 105 -16 136 -5 13 -9 37
-9 53 0 16 -4 29 -10 29 -5 0 -10 -6 -10 -12z"/>
<path d="M4600 3308 c0 -7 5 -20 10 -28 8 -12 10 -9 10 13 0 15 -4 27 -10 27
-5 0 -10 -6 -10 -12z"/>
<path d="M4980 3311 c0 -7 -4 -9 -10 -6 -6 4 -10 -11 -10 -39 0 -25 5 -48 11
-52 7 -4 10 7 8 33 -2 21 1 44 5 51 4 8 5 16 2 19 -3 4 -6 1 -6 -6z"/>
<path d="M4766 3288 c-9 -5 -23 -26 -32 -46 -15 -36 -14 -60 3 -137 7 -30 7
-30 13 10 5 40 6 40 65 54 73 18 90 31 70 57 -13 17 -14 17 -15 2 0 -12 -16
-22 -55 -33 -60 -18 -75 -14 -75 16 0 34 30 69 59 69 14 0 33 5 41 10 20 13
-51 11 -74 -2z"/>
<path d="M5758 3293 c7 -3 16 -2 19 1 4 3 -2 6 -13 5 -11 0 -14 -3 -6 -6z"/>
<path d="M4625 3185 c4 -44 12 -90 16 -103 5 -13 9 -34 9 -48 0 -13 5 -24 11
-24 7 0 9 10 5 28 -14 62 -26 130 -31 171 -9 79 -17 59 -10 -24z"/>
<path d="M4306 3174 c-10 -14 -15 -33 -13 -42 3 -12 6 -10 11 10 5 18 20 32
44 42 l37 15 -31 0 c-23 1 -36 -6 -48 -25z"/>
<path d="M4973 3147 c2 -31 7 -60 11 -64 10 -11 7 91 -4 107 -8 11 -9 -2 -7
-43z"/>
<path d="M5100 3183 c0 -10 5 -25 10 -33 8 -12 10 -9 10 12 0 15 -4 30 -10 33
-5 3 -10 -2 -10 -12z"/>
<path d="M5266 3173 c5 -5 12 -12 15 -16 3 -5 9 -2 12 7 5 12 0 16 -15 16 -12
0 -17 -3 -12 -7z"/>
<path d="M4105 3146 c-11 -6 -21 -11 -21 -11 -1 0 -5 -11 -9 -25 -7 -23 -5
-23 24 9 35 37 37 45 6 27z"/>
<path d="M4170 3140 c0 -5 5 -10 11 -10 5 0 7 -4 4 -10 -3 -5 -2 -10 4 -10 19
0 19 16 0 28 -11 7 -19 8 -19 2z"/>
<path d="M4430 3123 c0 -12 5 -25 10 -28 13 -8 13 15 0 35 -8 12 -10 11 -10
-7z"/>
<path d="M4350 3080 l-25 -8 28 -1 c15 -1 27 4 27 9 0 6 -1 10 -2 9 -2 -1 -14
-5 -28 -9z"/>
<path d="M4295 3046 c-7 -33 8 -101 24 -110 4 -3 13 -1 21 5 13 7 12 9 -2 9
-9 0 -21 13 -27 31 -14 41 -14 45 4 62 12 13 12 17 0 27 -11 9 -15 5 -20 -24z"/>
<path d="M4850 3065 c-15 -18 -51 -20 -68 -3 -6 6 -15 8 -19 4 -4 -4 -1 -11 7
-16 8 -6 11 -10 6 -10 -13 0 26 -29 40 -30 13 0 64 49 64 61 0 14 -16 10 -30
-6z"/>
<path d="M4540 3006 c0 -31 5 -56 10 -56 6 0 10 22 10 49 0 28 -4 53 -10 56
-6 4 -10 -15 -10 -49z"/>
<path d="M3637 3039 c7 -7 15 -10 18 -7 3 3 -2 9 -12 12 -14 6 -15 5 -6 -5z"/>
<path d="M4050 3007 c0 -14 5 -29 10 -32 7 -4 8 3 4 22 -9 38 -14 42 -14 10z"/>
<path d="M3931 2994 c0 -11 3 -14 6 -6 3 7 2 16 -1 19 -3 4 -6 -2 -5 -13z"/>
<path d="M4431 2981 c-6 -10 -7 -21 -4 -25 3 -3 1 -7 -5 -7 -7 -1 -15 -2 -19
-4 -52 -14 -63 -19 -63 -27 0 -13 57 -3 76 13 19 15 45 69 34 69 -5 0 -14 -8
-19 -19z"/>
<path d="M3906 2973 c-6 -14 -5 -15 5 -6 7 7 10 15 7 18 -3 3 -9 -2 -12 -12z"/>
<path d="M3940 2931 c13 -25 33 -28 28 -4 -2 10 -11 19 -21 21 -16 3 -17 1 -7
-17z"/>
<path d="M4060 2930 c0 -5 4 -10 9 -10 6 0 13 5 16 10 3 6 -1 10 -9 10 -9 0
-16 -4 -16 -10z"/>
<path d="M3860 2909 c0 -5 5 -7 10 -4 6 3 10 8 10 11 0 2 -4 4 -10 4 -5 0 -10
-5 -10 -11z"/>
<path d="M4090 2909 c0 -8 32 -29 44 -29 15 0 3 16 -19 27 -14 6 -25 7 -25 2z"/>
<path d="M4180 2910 c0 -5 5 -10 10 -10 6 0 10 5 10 10 0 6 -4 10 -10 10 -5 0
-10 -4 -10 -10z"/>
<path d="M3599 2892 c-1 -4 -1 -10 0 -14 0 -5 -4 -8 -10 -8 -8 0 -8 -5 1 -15
7 -8 18 -15 24 -14 7 0 6 2 -1 6 -21 8 -15 25 6 18 29 -9 33 9 5 22 -13 6 -25
8 -25 5z"/>
<path d="M3700 2869 c0 -5 5 -7 10 -4 6 3 10 8 10 11 0 2 -4 4 -10 4 -5 0 -10
-5 -10 -11z"/>
<path d="M3965 2870 c3 -5 11 -10 16 -10 6 0 7 5 4 10 -3 6 -11 10 -16 10 -6
0 -7 -4 -4 -10z"/>
<path d="M4670 3710 c0 -5 -7 -10 -17 -10 -33 0 -1 -14 39 -17 l41 -3 -26 20
c-28 22 -37 25 -37 10z"/>
<path d="M5280 3740 c0 -5 5 -10 11 -10 5 0 7 5 4 10 -3 6 -8 10 -11 10 -2 0
-4 -4 -4 -10z"/>
<path d="M4217 3705 c-15 -11 -15 -14 -3 -24 12 -10 17 -8 25 8 14 25 2 34
-22 16z"/>
<path d="M4270 3639 c-11 -19 -10 -20 10 -9 11 6 18 15 15 21 -9 13 -13 11
-25 -12z"/>
<path d="M4028 3633 c7 -3 16 -2 19 1 4 3 -2 6 -13 5 -11 0 -14 -3 -6 -6z"/>
<path d="M4070 3630 c-12 -8 -9 -10 13 -10 16 0 26 4 22 10 -8 12 -16 12 -35
0z"/>
<path d="M4228 3613 c7 -3 16 -2 19 1 4 3 -2 6 -13 5 -11 0 -14 -3 -6 -6z"/>
<path d="M3474 3582 c11 -12 19 -13 27 -5 7 7 3 12 -16 15 -25 5 -25 4 -11
-10z"/>
<path d="M3965 3580 c-3 -5 -1 -10 4 -10 6 0 11 5 11 10 0 6 -2 10 -4 10 -3 0
-8 -4 -11 -10z"/>
<path d="M3698 3573 c7 -3 16 -2 19 1 4 3 -2 6 -13 5 -11 0 -14 -3 -6 -6z"/>
<path d="M4185 3560 c3 -5 10 -10 16 -10 5 0 9 5 9 10 0 6 -7 10 -16 10 -8 0
-12 -4 -9 -10z"/>
<path d="M4228 3548 c-38 -13 -35 -30 3 -24 36 5 46 13 33 25 -5 5 -21 4 -36
-1z"/>
<path d="M3790 3539 c0 -5 5 -7 10 -4 6 3 10 8 10 11 0 2 -4 4 -10 4 -5 0 -10
-5 -10 -11z"/>
<path d="M3830 3541 c0 -5 5 -13 10 -16 6 -3 10 -2 10 4 0 5 -4 13 -10 16 -5
3 -10 2 -10 -4z"/>
<path d="M3940 3540 c-7 -4 -22 -6 -34 -3 -20 3 -20 3 2 -6 12 -6 28 -8 36 -5
10 4 13 -3 10 -25 -2 -17 1 -31 6 -31 10 0 11 2 15 35 3 25 -18 46 -35 35z"/>
<path d="M4125 3500 c-17 -6 -15 -8 13 -12 17 -2 32 -1 32 3 0 12 -24 17 -45
9z"/>
<path d="M3807 3476 c-4 -10 0 -12 14 -9 22 6 26 23 5 23 -8 0 -16 -6 -19 -14z"/>
<path d="M7695 2890 c4 -6 11 -8 16 -5 14 9 11 15 -7 15 -8 0 -12 -5 -9 -10z"/>
<path d="M2551 2801 c-7 -5 -11 -14 -7 -19 9 -15 36 -4 36 14 0 16 -9 18 -29
5z"/>
<path d="M2865 2789 c-10 -15 3 -25 16 -12 7 7 7 13 1 17 -6 3 -14 1 -17 -5z"/>
<path d="M3310 2681 c0 -5 5 -13 10 -16 6 -3 10 -2 10 4 0 5 -4 13 -10 16 -5
3 -10 2 -10 -4z"/>
<path d="M4538 2633 c7 -3 16 -2 19 1 4 3 -2 6 -13 5 -11 0 -14 -3 -6 -6z"/>
<path d="M3702 2439 c2 -6 8 -10 13 -10 5 0 11 4 13 10 2 6 -4 11 -13 11 -9 0
-15 -5 -13 -11z"/>
<path d="M3355 2381 c-3 -5 -1 -12 5 -16 5 -3 10 1 10 9 0 18 -6 21 -15 7z"/>
<path d="M3795 2380 c-3 -5 1 -10 10 -10 9 0 13 5 10 10 -3 6 -8 10 -10 10 -2
0 -7 -4 -10 -10z"/>
<path d="M3095 2367 c-15 -12 -15 -14 2 -35 17 -21 19 -21 40 -4 l22 17 -23
17 c-19 14 -27 15 -41 5z"/>
<path d="M3305 2320 c3 -5 10 -10 16 -10 5 0 9 5 9 10 0 6 -7 10 -16 10 -8 0
-12 -4 -9 -10z"/>
<path d="M3920 2314 c0 -8 5 -12 10 -9 6 4 8 11 5 16 -9 14 -15 11 -15 -7z"/>
<path d="M3075 2300 c3 -5 8 -10 11 -10 2 0 4 5 4 10 0 6 -5 10 -11 10 -5 0
-7 -4 -4 -10z"/>
<path d="M7175 2280 c3 -5 8 -10 11 -10 2 0 4 5 4 10 0 6 -5 10 -11 10 -5 0
-7 -4 -4 -10z"/>
<path d="M3375 2250 c3 -5 8 -10 11 -10 2 0 4 5 4 10 0 6 -5 10 -11 10 -5 0
-7 -4 -4 -10z"/>
<path d="M3860 2246 c0 -9 30 -14 35 -6 4 6 -3 10 -14 10 -12 0 -21 -2 -21 -4z"/>
<path d="M4613 2220 c2 -8 12 -16 23 -17 13 -2 15 -1 4 4 -8 3 -19 11 -23 17
-6 7 -7 6 -4 -4z"/>
<path d="M3545 2150 c-4 -6 7 -10 25 -10 18 0 29 4 25 10 -3 6 -15 10 -25 10
-10 0 -22 -4 -25 -10z"/>
<path d="M4356 1951 c-3 -5 6 -8 19 -8 14 0 25 3 25 8 0 5 -9 9 -19 9 -11 0
-22 -4 -25 -9z"/>
</g>
</svg>
